<svg xmlns="http://www.w3.org/2000/svg" xmlns:xlink="http://www.w3.org/1999/xlink" width="32" height="32" viewBox="0 0 8.467 8.467"><linearGradient id="a" x1="5.821" x2="6.615" y1="290.915" y2="290.121" gradientUnits="userSpaceOnUse"><stop offset="0" stop-color="#fff"/><stop offset=".78" stop-color="#f1f1f1"/><stop offset="1" stop-color="#d5d5d5"/></linearGradient><g><g stroke-width=".265" transform="translate(0 -288.53332)"><path fill="#fafafa" d="m2.1172964 289.32708v6.87917h5.291037l.000635-5.02708-1.8520834-1.85209z"/><path fill="#3a3a38" d="m2.1166667 289.0625c-.1465791 0-.2645833.118-.2645833.26458v6.87917c0 .14658.1180042.26458.2645833.26458h5.2916667c.1465791 0 .2361361-.12079.2645833-.26458v-2.67477-2.77952l-1.72193-1.68946zm0 .26458h3.4395833v1.5875c0 .17797.1300105.26459.2645834.26459h1.5875v5.02708h-5.2916667z"/><rect width="2.646" height=".794" x="2.646" y="290.65" fill="#1e8bcd" ry=".265"/><path fill="url(#a)" fill-rule="evenodd" d="m5.8214631 290.91458h1.5875l-1.5875-1.5875z"/></g><g fill="#797774" transform="translate(0 -288.53332) matrix(-.26458333 0 0 .26458333 0 288.53333)"><rect width="16" height="1" x="-26.002" y="18" ry=".491"/><rect width="16" height="1" x="-26.002" y="15" ry=".466"/><rect width="16" height="1" x="-26.002" y="21" ry=".491"/><rect width="16" height="1" x="-26.002" y="24" ry=".491"/></g><path fill="#1e8bcd" d="m.79375 291.9729.2673358.00002v-1.65615c0-.0492.00189-.10029.00568-.15328l-.15740815.10684c-.0302774.0252-.059924.034-.0889399.0265-.0277543-.009-.0473084-.0215-.0586625-.0378l-.10029692-.13821.52916667-.39687h.1322917v2.24895h.2645833v.26458l-.79375-.00002z" transform="translate(0 -288.53332)"/></g></svg>