<svg xmlns="http://www.w3.org/2000/svg" width="24" height="24" viewBox="0 0 24 24"><path fill="#fafafa" stroke-width="1.25" d="m2 2v20h20v-20z"/><path fill="#d3d3d3" d="m4 4v1h1v-1zm2 0v1h2v-1zm3 0v1h2v-1zm3 0v1h2v-1zm3 0v1h2v-1zm3 0v1h1 1v-1h-1zm-14 2v2h1v-2zm15 0v2h1v-2zm-15 3v2h1v-2zm15 0v2h1v-2zm-15 3v2h1v-2zm15 0v2h1v-2zm-15 3v2h1v-2zm15 0v2h1v-2zm-15 3v2h1v-2zm15 0v1h-1v1h1 1v-2zm-13 1v1h2v-1zm3 0v1h2v-1zm3 0v1h2v-1zm3 0v1h2v-1z"/><path fill="#3a3a38" stroke-width="1.146" d="m5.414062 4 14.585938 14.585938v.05859.203125 1.152347h-1.152344-.21289-.04883l-14.585936-14.5859375v-.0585937-.203125-1.1523438h1.152344.21289z"/></svg>