<svg xmlns="http://www.w3.org/2000/svg" width="746" height="124" class="railroad-diagram" viewBox="0 0 746 124"><g transform="translate(.5 .5)"><style>svg.railroad-diagram path,svg.railroad-diagram rect{stroke-width:1;stroke:#000;fill:transparent}svg.railroad-diagram text{font:700 14px monospace;font-family:Verdana,sans-serif;text-anchor:middle}</style><g><path d="M20 41v20m10 -20v20m-10 -10h20"/></g><path d="M40 51h10"/><g><path d="M50 51h0.0"/><path d="M696.0 51h0.0"/><g class="terminal"><path d="M50.0 51h0.0"/><path d="M138.0 51h0.0"/><rect width="88" height="22" x="50" y="40" rx="10" ry="10"/><text x="94" y="55">For Each</text></g><path d="M138.0 51h10"/><path d="M148.0 51h10"/><g class="terminal"><path d="M158.0 51h0.0"/><path d="M212.0 51h0.0"/><rect width="54" height="22" x="158" y="40" rx="10" ry="10"/><text x="185" y="55">item</text></g><path d="M212.0 51h10"/><path d="M222.0 51h10"/><g class="terminal"><path d="M232.0 51h0.0"/><path d="M269.0 51h0.0"/><rect width="37" height="22" x="232" y="40" rx="10" ry="10"/><text x="250.5" y="55">In</text></g><path d="M269.0 51h10"/><path d="M279.0 51h10"/><g class="terminal"><path d="M289.0 51h0.0"/><path d="M343.0 51h0.0"/><rect width="54" height="22" x="289" y="40" rx="10" ry="10"/><text x="316" y="55">list</text></g><path d="M343.0 51h10"/><path d="M353.0 51h10"/><g><path d="M363.0 51h0.0"/><path d="M498.0 51h0.0"/><path d="M363.0 51h15"/><g class="non-terminal"><path d="M378.0 51h0.0"/><path d="M483.0 51h0.0"/><rect width="105" height="22" x="378" y="40"/><text x="430.5" y="55">statements</text></g><path d="M483.0 51h15"/><path d="M378.0 51a15 15 0 0 0 -15 15v12a15 15 0 0 0 15 15"/><g class="terminal"><path d="M378.0 93h8.5"/><path d="M474.5 93h8.5"/><rect width="88" height="22" x="386.5" y="82" rx="10" ry="10"/><text x="430.5" y="97">Exit For</text></g><path d="M483.0 93a15 15 0 0 0 15 -15v-12a15 15 0 0 0 -15 -15"/></g><path d="M498.0 51h10"/><path d="M508.0 51h10"/><g class="terminal"><path d="M518.0 51h0.0"/><path d="M572.0 51h0.0"/><rect width="54" height="22" x="518" y="40" rx="10" ry="10"/><text x="545" y="55">Next</text></g><path d="M572.0 51h10"/><g><path d="M582.0 51h0.0"/><path d="M696.0 51h0.0"/><path d="M582.0 51a15 15 0 0 0 15 -15v-1a15 15 0 0 1 15 -15"/><g><path d="M612.0 20h54.0"/></g><path d="M666.0 20a15 15 0 0 1 15 15v1a15 15 0 0 0 15 15"/><path d="M582.0 51h30"/><g class="terminal"><path d="M612.0 51h0.0"/><path d="M666.0 51h0.0"/><rect width="54" height="22" x="612" y="40" rx="10" ry="10"/><text x="639" y="55">item</text></g><path d="M666.0 51h30"/></g></g><path d="M696.0 51h10"/><path d="M 706.0 51 h 20 m -10 -10 v 20 m 10 -20 v 20"/></g></svg>